<?xml version="1.0" encoding="UTF-8"?>
<svg width="102px" height="102px" viewBox="0 0 102 102" version="1.1" xmlns="http://www.w3.org/2000/svg" xmlns:xlink="http://www.w3.org/1999/xlink">
    <!-- Generator: Sketch 49 (51002) - http://www.bohemiancoding.com/sketch -->
    <title>enquire</title>
    <desc>Created with Sketch.</desc>
    <defs></defs>
    <g id="Page-1" stroke="none" stroke-width="1" fill="none" fill-rule="evenodd">
        <g id="landing-page" transform="translate(-346.000000, -2580.000000)">
            <g id="The-Process" transform="translate(335.000000, 2373.000000)">
                <g id="enquire" transform="translate(11.000000, 207.000000)">
                    <polyline id="Fill-68" fill="#00D7FF" points="47.488449 100.031007 44.5083058 99.0097837 46.0495962 94.5135654 44.8502894 89.4169058 47.9171106 88.6951154 49.3260202 94.6774654 47.488449 100.031007"></polyline>
                    <polyline id="Fill-69" fill="#00D7FF" points="53.9120683 99.9884558 52.3140433 94.8429413 53.8852769 88.4398096 56.9473702 89.1915433 55.5841635 94.7436558 56.9221548 99.0539106 53.9120683 99.9884558"></polyline>
                    <path d="M20.9145856,97.9444337 L80.6703192,97.9444337 L80.6703192,94.7263202 C80.6703192,92.7752798 79.411126,91.0007471 77.5357317,90.3120519 L61.7587808,83.8380019 L61.7587808,94.0470808 L50.8121519,88.4161702 L39.6953192,94.0234413 L39.6953192,83.7087731 L23.9940144,90.2773808 C22.1233481,90.9897154 20.9145856,92.7138173 20.9145856,94.6695856 L20.9145856,97.9444337 Z M83.8206663,101.096357 L17.7626625,101.096357 L17.7626625,94.6695856 C17.7626625,91.454624 19.8035327,88.5123038 22.8451385,87.3413644 L42.8472423,78.9730087 L42.8472423,88.9031423 L50.8263356,84.8797125 L58.6052817,88.8810788 L58.6052817,79.1369087 L78.6783038,87.3744596 C81.7325173,88.4981202 83.8206663,91.4609279 83.8206663,94.7263202 L83.8206663,101.096357 Z" id="Fill-70" fill="#00D7FF"></path>
                    <path d="M51.9830913,75.9124913 C52.7490087,75.9140673 53.472375,75.6855529 54.0113538,75.2301 L54.618099,74.7210644 C55.768551,73.7644558 57.691224,72.1632788 58.0142962,71.3028038 L61.215074,64.7641394 L64.4048202,63.1676904 L65.0162933,60.1339644 L62.4979067,60.1339644 L62.8194029,58.2869375 C63.0731327,56.830749 63.2023615,55.5290048 63.2023615,54.4179519 L63.2023615,53.8726692 C63.2023615,46.8864317 57.5162923,41.2003625 50.5300548,41.2003625 C43.5406654,41.2003625 37.8561721,46.8864317 37.8561721,53.8726692 L37.8561721,54.4179519 C37.8561721,55.5526442 37.9664894,56.8669962 38.1855481,58.3231846 L38.4581894,60.1339644 L36.0359365,60.1339644 L36.9090192,63.1866019 L39.7299904,64.8161462 L42.7511087,71.2035183 C43.0773327,72.0608413 44.8298019,73.4870865 45.8778163,74.3381058 C46.2450154,74.6359625 46.5933029,74.9196356 46.9006154,75.1812452 C47.4427462,75.6445779 48.1361692,75.9046115 48.8532317,75.9124913 L51.9830913,75.9124913 Z M52.0429779,79.0644144 C52.0161865,79.0644144 51.9909712,79.0644144 51.9657558,79.0644144 L48.8343202,79.0644144 C47.3623721,79.0486548 45.9550385,78.5207077 44.8518654,77.5782827 C44.5634644,77.3324327 44.2356644,77.0645192 43.8905288,76.7839981 C42.1853385,75.3987279 40.4218375,73.9646029 39.8497635,72.4264644 L37.3030096,67.0540115 L34.2283087,65.2779029 L32.8351587,60.1859712 C32.8351587,58.8337962 33.6782981,57.6754644 34.8649971,57.2042519 C34.7578317,56.2050923 34.704249,55.2721231 34.704249,54.4179519 L34.704249,53.8726692 C34.704249,45.1481462 41.8023798,38.0484394 50.5300548,38.0484394 C59.2545779,38.0484394 66.3542846,45.1481462 66.3542846,53.8726692 L66.3542846,54.4179519 C66.3542846,55.2626673 66.2928221,56.1893327 66.1698971,57.1869163 C66.5906788,57.3492404 66.9767894,57.6013942 67.3014375,57.937074 C67.8987269,58.551699 68.2154952,59.3633192 68.1902798,60.2222183 L68.1603365,60.4885558 L67.1911202,65.2968144 L63.5758644,67.1060183 L60.9061856,72.5525413 C60.3939981,73.9315077 58.7392385,75.392424 56.6353298,77.1433173 L56.0474962,77.6365933 C54.9569308,78.5585308 53.5369894,79.0644144 52.0429779,79.0644144 Z" id="Fill-71" fill="#00D7FF"></path>
                    <path d="M50.5300548,3.21180962 C47.8682558,3.21180962 45.7028846,5.37718077 45.7028846,8.03740385 C45.7028846,10.6992029 47.8682558,12.864574 50.5300548,12.864574 C53.1902779,12.864574 55.355649,10.6992029 55.355649,8.03740385 C55.355649,5.37718077 53.1902779,3.21180962 50.5300548,3.21180962 Z M50.5300548,16.0164971 C46.1299702,16.0164971 42.5509615,12.4374885 42.5509615,8.03740385 C42.5509615,3.63889519 46.1299702,0.0598865385 50.5300548,0.0598865385 C54.9285635,0.0598865385 58.5075721,3.63889519 58.5075721,8.03740385 C58.5075721,12.4374885 54.9285635,16.0164971 50.5300548,16.0164971 Z M52.0697692,21.3999817 L48.9178462,21.3952538 L48.92415,17.989601 L52.0760731,17.9959048 L52.0697692,21.3999817 Z M52.0571615,28.2097115 L48.9052385,28.2034077 L48.9115423,24.7993308 L52.0634654,24.8056346 L52.0571615,28.2097115 Z M52.0445538,35.0194413 L48.8926308,35.0147135 L48.8989346,31.6090606 L52.0508577,31.6137885 L52.0445538,35.0194413 Z M7.97751731,47.7106596 C3.57900865,47.7106596 0,44.131651 0,39.7331423 C0,35.3330577 3.57900865,31.754049 7.97751731,31.754049 C12.3776019,31.754049 15.9566106,35.3330577 15.9566106,39.7331423 C15.9566106,44.131651 12.3776019,47.7106596 7.97751731,47.7106596 Z M7.97751731,34.9059721 C5.31729423,34.9059721 3.15192308,37.0713433 3.15192308,39.7331423 C3.15192308,42.3933654 5.31729423,44.5587365 7.97751731,44.5587365 C10.6393163,44.5587365 12.8046875,42.3933654 12.8046875,39.7331423 C12.8046875,37.0713433 10.6393163,34.9059721 7.97751731,34.9059721 Z M7.97751731,94.9895058 C3.57900865,94.9895058 0,91.4104971 0,87.0119885 C0,82.6119038 3.57900865,79.0328952 7.97751731,79.0328952 C12.3776019,79.0328952 15.9566106,82.6119038 15.9566106,87.0119885 C15.9566106,91.4104971 12.3776019,94.9895058 7.97751731,94.9895058 Z M7.97751731,82.1848183 C5.31729423,82.1848183 3.15192308,84.3501894 3.15192308,87.0119885 C3.15192308,89.6722115 5.31729423,91.8375827 7.97751731,91.8375827 C10.6393163,91.8375827 12.8046875,89.6722115 12.8046875,87.0119885 C12.8046875,84.3501894 10.6393163,82.1848183 7.97751731,82.1848183 Z M18.7334548,48.1109538 L16.3537529,46.6642212 L17.9911769,43.9709029 L20.3708788,45.4176356 L18.7334548,48.1109538 Z M23.4944346,51.0028433 L21.1147327,49.5561106 L22.7505808,46.8627923 L25.1302827,48.309525 L23.4944346,51.0028433 Z M28.2554144,53.8947327 L25.8757125,52.448 L27.5115606,49.7546817 L29.8912625,51.2014144 L28.2554144,53.8947327 Z M27.5115606,77.936026 L25.8757125,75.2427077 L28.2554144,73.797551 L29.8912625,76.4892933 L27.5115606,77.936026 Z M22.7505808,80.8279154 L21.1147327,78.1345971 L23.4944346,76.6878644 L25.1302827,79.3811827 L22.7505808,80.8279154 Z M17.9911769,83.7198048 L16.3537529,81.0264865 L18.7334548,79.5797538 L20.3708788,82.2730721 L17.9911769,83.7198048 Z M6.40313173,53.3147788 L6.40313173,50.5127192 L9.55505481,50.5127192 L9.55505481,53.3147788 L6.40313173,53.3147788 Z M6.40313173,58.9188981 L6.40313173,56.1168385 L9.55505481,56.1168385 L9.55505481,58.9188981 L6.40313173,58.9188981 Z M6.40313173,64.5230173 L6.40313173,61.7209577 L9.55505481,61.7209577 L9.55505481,64.5230173 L6.40313173,64.5230173 Z M6.40313173,70.1271365 L6.40313173,67.3266529 L9.55505481,67.3266529 L9.55505481,70.1271365 L6.40313173,70.1271365 Z M6.40313173,75.7328317 L6.40313173,72.9307721 L9.55505481,72.9307721 L9.55505481,75.7328317 L6.40313173,75.7328317 Z M93.178726,47.7106596 C88.7802173,47.7106596 85.1996327,44.131651 85.1996327,39.7331423 C85.1996327,35.3330577 88.7802173,31.754049 93.178726,31.754049 C97.5788106,31.754049 101.157819,35.3330577 101.157819,39.7331423 C101.157819,44.131651 97.5788106,47.7106596 93.178726,47.7106596 Z M93.178726,34.9059721 C90.5185029,34.9059721 88.3531317,37.0713433 88.3531317,39.7331423 C88.3531317,42.3933654 90.5185029,44.5587365 93.178726,44.5587365 C95.840525,44.5587365 98.0043202,42.3933654 98.0043202,39.7331423 C98.0043202,37.0713433 95.840525,34.9059721 93.178726,34.9059721 Z M93.178726,94.9895058 C88.7802173,94.9895058 85.1996327,91.4104971 85.1996327,87.0119885 C85.1996327,82.6119038 88.7802173,79.0328952 93.178726,79.0328952 C97.5788106,79.0328952 101.157819,82.6119038 101.157819,87.0119885 C101.157819,91.4104971 97.5788106,94.9895058 93.178726,94.9895058 Z M93.178726,82.1848183 C90.5185029,82.1848183 88.3531317,84.3501894 88.3531317,87.0119885 C88.3531317,89.6722115 90.5185029,91.8375827 93.178726,91.8375827 C95.840525,91.8375827 98.0043202,89.6722115 98.0043202,87.0119885 C98.0043202,84.3501894 95.840525,82.1848183 93.178726,82.1848183 Z M82.4227885,48.1109538 L80.7853644,45.4176356 L83.1650663,43.9709029 L84.8040663,46.6642212 L82.4227885,48.1109538 Z M77.6618087,51.0028433 L76.0259606,48.309525 L78.4072385,46.8627923 L80.0430865,49.5561106 L77.6618087,51.0028433 Z M72.9008288,53.8947327 L71.2649808,51.2014144 L73.6446827,49.7546817 L75.2821067,52.448 L72.9008288,53.8947327 Z M73.6446827,77.936026 L71.2649808,76.4892933 L72.9008288,73.797551 L75.2821067,75.2427077 L73.6446827,77.936026 Z M78.4072385,80.8279154 L76.0259606,79.3811827 L77.6618087,76.6878644 L80.0430865,78.1345971 L78.4072385,80.8279154 Z M83.1650663,83.7198048 L80.7853644,82.2730721 L82.4227885,79.5797538 L84.8040663,81.0264865 L83.1650663,83.7198048 Z M91.6027644,53.3147788 L91.6027644,50.5127192 L94.7546875,50.5127192 L94.7546875,53.3147788 L91.6027644,53.3147788 Z M91.6027644,58.9188981 L91.6027644,56.1168385 L94.7546875,56.1168385 L94.7546875,58.9188981 L91.6027644,58.9188981 Z M91.6027644,64.5230173 L91.6027644,61.7209577 L94.7546875,61.7209577 L94.7546875,64.5230173 L91.6027644,64.5230173 Z M91.6027644,70.1271365 L91.6027644,67.3266529 L94.7546875,67.3266529 L94.7546875,70.1271365 L91.6027644,70.1271365 Z M91.6027644,75.7328317 L91.6027644,72.9307721 L94.7546875,72.9307721 L94.7546875,75.7328317 L91.6027644,75.7328317 Z M40.071974,17.3434567 L38.2564663,14.7667596 L40.5463385,13.152975 L42.3618462,15.7280962 L40.071974,17.3434567 Z M35.4938058,20.5741779 L33.6767221,17.9990567 L35.9665942,16.3836962 L37.7836779,18.9588173 L35.4938058,20.5741779 Z M30.9140615,23.804899 L29.0969779,21.2297779 L31.38685,19.6144173 L33.2039337,22.1895385 L30.9140615,23.804899 Z M26.3343173,27.0356202 L24.5188096,24.4589231 L26.8086817,22.8451385 L28.6241894,25.4202596 L26.3343173,27.0356202 Z M21.7545731,30.2663413 L19.9390654,27.6912202 L22.2289375,26.0758596 L24.0444452,28.6525567 L21.7545731,30.2663413 Z M17.1748288,33.4970625 L15.3593212,30.9219413 L17.6491933,29.3065808 L19.4662769,31.8817019 L17.1748288,33.4970625 Z M61.8107875,17.3434567 L59.5209154,15.7280962 L61.3364231,13.152975 L63.6278712,14.7667596 L61.8107875,17.3434567 Z M66.3905317,20.5741779 L64.0990837,18.9588173 L65.9177433,16.3836962 L68.2076154,17.9990567 L66.3905317,20.5741779 Z M70.970276,23.804899 L68.6804038,22.1895385 L70.4959115,19.6144173 L72.7857837,21.2297779 L70.970276,23.804899 Z M75.5500202,27.0356202 L73.2585721,25.4202596 L75.0756558,22.8451385 L77.3655279,24.4589231 L75.5500202,27.0356202 Z M80.1281885,30.2663413 L77.8383163,28.6525567 L79.6554,26.0758596 L81.9452721,27.6912202 L80.1281885,30.2663413 Z M84.7079327,33.4970625 L82.4180606,31.8817019 L84.2335683,29.3065808 L86.5234404,30.9219413 L84.7079327,33.4970625 Z" id="Combined-Shape" fill="#464C4E"></path>
                </g>
            </g>
        </g>
    </g>
</svg>