<?xml version="1.0" encoding="UTF-8"?>
<svg width="17px" height="21px" viewBox="0 0 17 21" version="1.1" xmlns="http://www.w3.org/2000/svg" xmlns:xlink="http://www.w3.org/1999/xlink">
    <!-- Generator: Sketch 49 (51002) - http://www.bohemiancoding.com/sketch -->
    <title>first name</title>
    <desc>Created with Sketch.</desc>
    <defs></defs>
    <g id="Page-1" stroke="none" stroke-width="1" fill="none" fill-rule="evenodd">
        <g id="landing-page" transform="translate(-280.000000, -3840.000000)" fill="#92B0B0" fill-rule="nonzero">
            <g id="Get-Started" transform="translate(235.000000, 3714.000000)">
                <g id="name" transform="translate(30.000000, 81.000000)">
                    <g id="field" transform="translate(0.000000, 31.000000)">
                        <g id="user-1" transform="translate(15.628746, 14.515625)">
                            <path d="M12.0355962,11.8061914 C12.0211431,11.8046289 9.92821392,11.8663831 9.61702845,9.62356075 C9.96280192,9.38229702 10.2814803,9.0690874 10.5622326,8.68904553 C11.1083963,7.94970038 11.4603132,7.0222164 11.5856681,6.01898682 C11.6287433,5.98003093 11.6643966,5.93155802 11.6884022,5.87442034 C11.9152129,5.334116 12.030234,4.75719952 12.030234,4.15961546 C12.030234,1.86601198 10.3000882,0 8.17331678,0 C7.61710338,0 7.07747375,0.12812475 6.56781565,0.381142721 C6.37339132,0.395986442 6.18287322,0.430183819 6.00016761,0.482953602 C5.12669631,0.735332371 4.41590224,1.38295184 3.99868005,2.30660061 C3.59363822,3.20340283 3.51380883,4.2591181 3.77396457,5.27932208 C3.82893606,5.49484012 3.89882229,5.70662948 3.98170565,5.90897283 C4.00414878,5.96369574 4.03760042,6.01039309 4.0777637,6.04881631 C4.28081728,7.61468683 5.02587974,8.91209197 6.04178685,9.62043576 C5.72964257,11.8670578 3.63745916,11.8047 3.62304157,11.8062625 C2.1180019,11.8573277 -2.27373675e-13,13.0967784 -2.27373675e-13,14.614034 L-2.27373675e-13,19.5906258 C-2.27373675e-13,19.8167262 0.18327379,20 0.4093742,20 L4.00421803,20 L11.6543132,20 L15.249228,20 C15.4752929,20 15.6586377,19.8167262 15.6586377,19.5906258 L15.6586377,14.614034 C15.6586022,13.0967074 13.5407069,11.8572212 12.0355962,11.8061914 Z" id="first-name"></path>
                        </g>
                    </g>
                </g>
            </g>
        </g>
    </g>
</svg>