<?xml version="1.0" encoding="UTF-8"?>
<svg width="21px" height="21px" viewBox="0 0 21 21" version="1.1" xmlns="http://www.w3.org/2000/svg" xmlns:xlink="http://www.w3.org/1999/xlink">
    <!-- Generator: Sketch 49 (51002) - http://www.bohemiancoding.com/sketch -->
    <title>Star</title>
    <desc>Created with Sketch.</desc>
    <defs></defs>
    <g id="Page-1" stroke="none" stroke-width="1" fill="none" fill-rule="evenodd">
        <g id="landing-page" transform="translate(-740.000000, -1599.000000)" fill="#B9CECE">
            <g id="the-process" transform="translate(0.000000, 1023.000000)">
                <g id="step-2" transform="translate(720.000000, 556.000000)">
                    <path d="M29.929729,38.0498092 L25.3505669,40.4572172 C24.7514926,40.7721692 24.010528,40.5418426 23.695576,39.9427683 C23.5701605,39.7042138 23.5268827,39.4309686 23.5724426,39.1653343 L24.4469847,34.0663623 C24.5151685,33.6688205 24.3833688,33.263183 24.0945379,32.9816424 L20.3899179,29.3705304 C19.9052566,28.8981025 19.8953396,28.1222284 20.3677675,27.6375671 C20.5558908,27.4445725 20.8023889,27.3189754 21.0691009,27.2802199 L26.1887598,26.5362899 C26.5879144,26.4782894 26.9329703,26.2275916 27.1114777,25.8658962 L29.4010587,21.2266982 C29.7005959,20.6197697 30.4354314,20.3705798 31.0423599,20.6701169 C31.2840421,20.7893941 31.479664,20.9850161 31.5989413,21.2266982 L33.8885223,25.8658962 C34.0670297,26.2275916 34.4120856,26.4782894 34.8112402,26.5362899 L39.9308991,27.2802199 C40.6006844,27.3775454 41.0647548,27.9994117 40.9674293,28.669197 C40.9286738,28.9359091 40.8030768,29.1824071 40.6100821,29.3705304 L36.9054621,32.9816424 C36.6166312,33.263183 36.4848315,33.6688205 36.5530153,34.0663623 L37.4275574,39.1653343 C37.5419704,39.8324132 37.0939461,40.4659377 36.4268672,40.5803507 C36.1612328,40.6259105 35.8879876,40.5826327 35.6494331,40.4572172 L31.070271,38.0498092 C30.7132563,37.8621154 30.2867437,37.8621154 29.929729,38.0498092 Z" id="Star"></path>
                </g>
            </g>
        </g>
    </g>
</svg>