<?xml version="1.0" encoding="UTF-8"?>
<svg width="19px" height="18px" viewBox="0 0 19 18" version="1.1" xmlns="http://www.w3.org/2000/svg" xmlns:xlink="http://www.w3.org/1999/xlink">
    <!-- Generator: Sketch 49 (51002) - http://www.bohemiancoding.com/sketch -->
    <title>Linkedin</title>
    <desc>Created with Sketch.</desc>
    <defs></defs>
    <g id="Page-1" stroke="none" stroke-width="1" fill="none" fill-rule="evenodd">
        <g id="landing-page" transform="translate(-283.000000, -4280.000000)" fill="#FFFFFF">
            <g id="footer" transform="translate(0.000000, 4100.000000)">
                <g id="Connect-with-us-on-S">
                    <path d="M284.152432,186.131676 L287.65027,186.131676 L287.65027,197.214811 L284.152432,197.214811 L284.152432,186.131676 Z M297.207297,186.025135 C299.693243,186.025135 301.646486,187.619351 301.646486,191.052486 L301.646486,197.214811 L297.680162,197.214811 L297.680162,191.479622 C297.680162,189.978324 297.059892,188.953784 295.695297,188.953784 C294.651784,188.953784 294.071405,189.645081 293.801405,190.311568 C293.700216,190.550919 293.715784,190.884162 293.715784,191.217405 L293.715784,197.214811 L289.786432,197.214811 C289.786432,197.214811 289.837027,187.055514 289.786432,186.131676 L293.715784,186.131676 L293.715784,187.871351 C293.947838,187.110486 295.203459,186.025135 297.207297,186.025135 Z M285.836649,180.9 C287.127297,180.9 287.920757,181.727514 287.946054,182.821135 C287.946054,183.895297 287.127297,184.745676 285.812324,184.745676 L285.787027,184.745676 C284.521189,184.745676 283.7,183.898216 283.7,182.824054 C283.7,181.729459 284.545027,180.9 285.836649,180.9 Z" id="Linkedin"></path>
                </g>
            </g>
        </g>
    </g>
</svg>