<?xml version="1.0" encoding="UTF-8"?>
<svg width="19px" height="19px" viewBox="0 0 19 19" version="1.1" xmlns="http://www.w3.org/2000/svg" xmlns:xlink="http://www.w3.org/1999/xlink">
    <!-- Generator: Sketch 49 (51002) - http://www.bohemiancoding.com/sketch -->
    <title>phone</title>
    <desc>Created with Sketch.</desc>
    <defs></defs>
    <g id="Page-1" stroke="none" stroke-width="1" fill="none" fill-rule="evenodd">
        <g id="landing-page" transform="translate(-612.000000, -3944.000000)" fill="#92B0B0" fill-rule="nonzero">
            <g id="Get-Started" transform="translate(235.000000, 3714.000000)">
                <g id="phone" transform="translate(363.000000, 183.000000)">
                    <g id="field" transform="translate(0.000000, 31.000000)">
                        <g id="user-1" transform="translate(14.628746, 16.515625)">
                            <g id="phone-receiver">
                                <path d="M17.9035869,14.1327506 C17.9415425,14.4235371 17.8529277,14.676368 17.6381144,14.8912432 L15.1161264,17.394176 C15.0023525,17.5205914 14.8538453,17.6281375 14.6705429,17.7165354 C14.4872405,17.8050572 14.3071295,17.8619441 14.1302099,17.8871962 C14.1175683,17.8871962 14.0795507,17.8904496 14.016312,17.8967703 C13.9531973,17.9030601 13.8710272,17.9062825 13.7698949,17.9062825 C13.5296436,17.9062825 13.1408851,17.8651975 12.6036195,17.7829964 C12.0663539,17.7007954 11.4090246,17.4984997 10.6316316,17.1762023 C9.85405266,16.8538429 8.97233594,16.3702419 7.98632648,15.7255851 C7.00031702,15.0809593 5.95103788,14.1959893 4.838582,13.0708609 C3.95367391,12.1985943 3.22046435,11.3642524 2.63895332,10.5678661 C2.05744229,9.77141786 1.58970516,9.03504791 1.23574192,8.3587253 C0.881747702,7.68240269 0.616275276,7.0692878 0.439293658,6.51938063 C0.26231204,5.96947346 0.142217371,5.49541556 0.0790096507,5.09720692 C0.0158019301,4.69899828 -0.00948115809,4.38612006 0.00316038603,4.15857227 C0.0158019301,3.93102447 0.0221227022,3.80460903 0.0221227022,3.77932594 C0.0474057904,3.60234433 0.104292739,3.42220232 0.192783548,3.23889993 C0.281274357,3.05559754 0.388727482,2.9070594 0.515142923,2.7932855 L3.03713097,0.271297452 C3.21411259,0.0943158341 3.4163773,0.00582502523 3.64392509,0.00582502523 C3.80826517,0.00582502523 3.95364292,0.0532308157 4.08005836,0.148042397 C4.20647381,0.242853977 4.31392693,0.359788261 4.40241774,0.498845246 L6.43138557,4.34819543 C6.54515947,4.55046014 6.57676333,4.77168716 6.52619715,5.0118765 C6.47563097,5.25206583 6.36817785,5.45433054 6.20383778,5.61867061 L5.27468428,6.54782411 C5.24940119,6.57310719 5.22727849,6.61419221 5.20831618,6.67107916 C5.18935386,6.72796611 5.1798727,6.7753719 5.1798727,6.81329653 C5.23043888,7.07876896 5.34421278,7.38216602 5.52119439,7.72348771 C5.67289292,8.02688477 5.90676149,8.39664993 6.22280009,8.83278321 C6.53883869,9.26891648 6.98761351,9.77138687 7.56912454,10.3402564 C8.13799403,10.9218294 8.64365579,11.3737026 9.08610983,11.6961239 C9.52847093,12.0183594 9.89836003,12.2554813 10.1954363,12.4071798 C10.4925126,12.5588783 10.7200604,12.6505295 10.8780487,12.6820404 L11.1150157,12.7294772 C11.1402988,12.7294772 11.1814768,12.7199651 11.2383017,12.7010337 C11.2951887,12.6820404 11.3362737,12.6599487 11.3615878,12.6346346 L12.4424088,11.5348203 C12.6700805,11.3325866 12.935429,11.2314542 13.2388571,11.2314542 C13.4538253,11.2314542 13.6243932,11.2693479 13.7508086,11.3452281 L13.76974,11.3452281 L17.429436,13.5069322 C17.6950014,13.6713962 17.8529897,13.8799197 17.9035869,14.1327506 Z" id="phone"></path>
                            </g>
                        </g>
                    </g>
                </g>
            </g>
        </g>
    </g>
</svg>