<?xml version="1.0" encoding="UTF-8"?>
<svg width="19px" height="17px" viewBox="0 0 19 17" version="1.1" xmlns="http://www.w3.org/2000/svg" xmlns:xlink="http://www.w3.org/1999/xlink">
    <!-- Generator: Sketch 49 (51002) - http://www.bohemiancoding.com/sketch -->
    <title>Twitter</title>
    <desc>Created with Sketch.</desc>
    <defs></defs>
    <g id="Page-1" stroke="none" stroke-width="1" fill="none" fill-rule="evenodd">
        <g id="landing-page" transform="translate(-330.000000, -4280.000000)" fill="#FFFFFF">
            <g id="footer" transform="translate(0.000000, 4100.000000)">
                <g id="Connect-with-us-on-S">
                    <path d="M348.217838,181.180703 C347.494919,181.619514 346.696108,181.938649 345.842324,182.109892 C345.162216,181.365081 344.190216,180.9 343.114108,180.9 C341.051405,180.9 339.377405,182.616324 339.377405,184.733027 C339.377405,185.033676 339.409514,185.325081 339.47373,185.605784 C336.367027,185.44573 333.613027,183.921568 331.76827,181.599568 C331.446216,182.167784 331.262324,182.826973 331.262324,183.528973 C331.262324,184.858054 331.922,186.031459 332.925622,186.718865 C332.313622,186.700378 331.736162,186.526216 331.231189,186.241135 L331.231189,186.287838 C331.231189,188.14573 332.519892,189.695676 334.231351,190.046432 C333.918054,190.136432 333.587243,190.181676 333.246216,190.181676 C333.005405,190.181676 332.770432,190.158324 332.542757,190.113568 C333.018541,191.635784 334.398216,192.744486 336.03427,192.774162 C334.755297,193.802595 333.142595,194.415568 331.39173,194.415568 C331.090108,194.415568 330.791892,194.398054 330.5,194.363027 C332.154054,195.448865 334.119946,196.08373 336.230324,196.08373 C343.106811,196.08373 346.865892,190.243946 346.865892,185.178162 C346.865892,185.011297 346.862973,184.844919 346.856649,184.681459 C347.586865,184.140973 348.221243,183.466216 348.720378,182.697568 C348.050973,183.002108 347.33,183.208378 346.574,183.300811 C347.346054,182.826973 347.938595,182.075838 348.217838,181.180703" id="Twitter"></path>
                </g>
            </g>
        </g>
    </g>
</svg>