<?xml version="1.0" encoding="UTF-8"?>
<svg width="23px" height="17px" viewBox="0 0 23 17" version="1.1" xmlns="http://www.w3.org/2000/svg" xmlns:xlink="http://www.w3.org/1999/xlink">
    <!-- Generator: Sketch 49 (51002) - http://www.bohemiancoding.com/sketch -->
    <title>Email</title>
    <desc>Created with Sketch.</desc>
    <defs></defs>
    <g id="Page-1" stroke="none" stroke-width="1" fill="none" fill-rule="evenodd">
        <g id="landing-page" transform="translate(-278.000000, -3944.000000)" fill="#92B0B0">
            <g id="Get-Started" transform="translate(235.000000, 3714.000000)">
                <g id="email" transform="translate(31.000000, 183.000000)">
                    <g id="field" transform="translate(0.000000, 31.000000)">
                        <path d="M32.5123609,18.0885164 L23.6612184,25.6058597 L14.8101189,18.0885164 L32.5123609,18.0885164 Z M34.0898105,16.515625 L13.2161994,16.515625 C12.9765911,16.515625 12.7623972,16.6651006 12.67979,16.8900451 C12.6545907,16.9585906 12.6271983,17.0297163 12.6288323,17.0998959 C12.6288323,17.101831 12.6287463,31.9628317 12.6287463,31.9628317 C12.6287463,32.2783389 12.9170331,32.515625 13.2326262,32.515625 L34.0897675,32.515625 C34.4053177,32.515625 34.6287571,32.2784249 34.6287571,31.9628317 C34.6287571,31.9628317 34.6447539,17.10196 34.6446679,17.1000249 C34.646345,17.0298453 34.6501292,16.9586336 34.6249299,16.8900451 C34.5422797,16.6651006 34.3294188,16.515625 34.0898105,16.515625 Z" id="Email"></path>
                    </g>
                </g>
            </g>
        </g>
    </g>
</svg>