<?xml version="1.0" encoding="UTF-8"?>
<svg width="18px" height="18px" viewBox="0 0 18 18" version="1.1" xmlns="http://www.w3.org/2000/svg" xmlns:xlink="http://www.w3.org/1999/xlink">
    <!-- Generator: Sketch 49 (51002) - http://www.bohemiancoding.com/sketch -->
    <title>Facebook</title>
    <desc>Created with Sketch.</desc>
    <defs></defs>
    <g id="Page-1" stroke="none" stroke-width="1" fill="none" fill-rule="evenodd">
        <g id="landing-page" transform="translate(-236.000000, -4280.000000)" fill="#FFFFFF">
            <g id="footer" transform="translate(0.000000, 4100.000000)">
                <g id="Connect-with-us-on-S">
                    <path d="M253.859405,196.873784 C253.859405,197.418162 253.418162,197.859892 252.873784,197.859892 L248.322703,197.859892 L248.322703,190.943514 L250.644216,190.943514 L250.992054,188.247892 L248.322703,188.247892 L248.322703,186.527189 C248.322703,185.746865 248.539676,185.215135 249.658595,185.215135 L251.085946,185.214649 L251.085946,182.803622 C250.838811,182.771027 249.991838,182.697568 249.006216,182.697568 C246.948378,182.697568 245.539514,183.953676 245.539514,186.260595 L245.539514,188.247892 L243.212162,188.247892 L243.212162,190.943514 L245.539514,190.943514 L245.539514,197.859892 L236.985622,197.859892 C236.441243,197.859892 236,197.418162 236,196.873784 L236,180.986108 C236,180.441243 236.441243,180 236.985622,180 L252.873784,180 C253.418162,180 253.859405,180.441243 253.859405,180.986108 L253.859405,196.873784" id="Facebook"></path>
                </g>
            </g>
        </g>
    </g>
</svg>