<?xml version="1.0" encoding="UTF-8"?>
<svg width="18px" height="21px" viewBox="0 0 18 21" version="1.1" xmlns="http://www.w3.org/2000/svg" xmlns:xlink="http://www.w3.org/1999/xlink">
    <!-- Generator: Sketch 49 (51002) - http://www.bohemiancoding.com/sketch -->
    <title>female</title>
    <desc>Created with Sketch.</desc>
    <defs></defs>
    <g id="Page-1" stroke="none" stroke-width="1" fill="none" fill-rule="evenodd">
        <g id="landing-page" transform="translate(-1121.000000, -3841.000000)" fill="#92B0B0" fill-rule="nonzero">
            <g id="Get-Started" transform="translate(235.000000, 3714.000000)">
                <g id="gender" transform="translate(695.000000, 81.000000)">
                    <g id="female" transform="translate(161.000000, 31.000000)">
                        <path d="M45.0493138,27.282332 L43.7325604,26.6421908 C43.7310745,25.6213697 43.7219879,20.5358571 43.7275313,20.0009975 C43.7571341,16.87225 42.3466003,15 38.9111316,15 C35.4752628,15 34.0644433,16.9314106 34.0945033,20.0600373 L34.0945033,26.641889 L32.7776355,27.282332 C32.3825123,27.4535354 31.9940755,27.7136607 31.7965139,28.1664199 C31.7965139,28.1664199 28.8933242,36 30.4681593,36 L47.35879,36 C48.933568,36 46.0303212,28.1664199 46.0303212,28.1664199 C45.8581906,27.7321333 45.4443227,27.453475 45.0493138,27.282332 Z M41.5524107,27.4936801 C41.5524107,27.4936801 39.3423725,28.2672343 38.916675,30.9842727 C38.9154749,30.9914565 38.911303,30.9914565 38.9101029,30.9842727 C38.4844054,28.2672343 36.2743672,27.4936801 36.2743672,27.4936801 L37.7229617,25.9740993 C35.6809395,25.006583 35.1378022,21.7168947 35.1378022,21.7168947 C35.0224199,21.241256 35.0085328,20.9159334 35.0085328,20.9159334 C36.0308584,20.8423449 39.5990254,20.5177467 39.8429343,19.2959004 C40.1792519,19.9521599 41.9597636,21.6017731 42.680232,21.7269761 C42.680232,21.7269761 41.9809656,24.9801418 40.0708416,25.9718053 L41.5524107,27.4936801 Z"></path>
                    </g>
                </g>
            </g>
        </g>
    </g>
</svg>