<?xml version="1.0" encoding="UTF-8"?>
<svg width="18px" height="23px" viewBox="0 0 18 23" version="1.1" xmlns="http://www.w3.org/2000/svg" xmlns:xlink="http://www.w3.org/1999/xlink">
    <!-- Generator: Sketch 49 (51002) - http://www.bohemiancoding.com/sketch -->
    <title>apply</title>
    <desc>Created with Sketch.</desc>
    <defs></defs>
    <g id="Page-1" stroke="none" stroke-width="1" fill="none" fill-rule="evenodd">
        <g id="landing-page" transform="translate(-741.000000, -1419.000000)" fill="#FFFFFF" fill-rule="nonzero">
            <g id="the-process" transform="translate(0.000000, 1023.000000)">
                <g id="step-1" transform="translate(720.000000, 377.000000)">
                    <path d="M34.082918,19.1962029 L38.3853024,23.4985459 C38.4533458,23.5665894 38.5034287,23.6466891 38.5381111,23.7324452 L33.8507942,23.7324452 L33.8507942,19.0468624 C33.9377477,19.0797694 34.0183428,19.1280357 34.082918,19.1962029 Z M32.497853,24.4089158 C32.497853,24.7824941 32.800415,25.0853864 33.1743236,25.0853864 L38.5882353,25.0853864 L38.5882353,41.3235294 C38.5882353,41.69558 38.2838153,42 37.9117647,42 L21.6764706,42 C21.2976487,42 21,41.69558 21,41.3235294 L21,19.6764706 C21,19.2976487 21.2976487,19 21.6764706,19 L32.497853,19 L32.497853,24.4089158 Z M34.5272648,37.2820057 C34.9011733,37.2820057 35.2037354,36.9791134 35.2037354,36.6055351 C35.2037354,36.2319569 34.9011733,35.9290646 34.5272648,35.9290646 L25.0566765,35.9290646 C24.682768,35.9290646 24.380206,36.2319569 24.380206,36.6055351 C24.380206,36.9791134 24.682768,37.2820057 25.0566765,37.2820057 L34.5272648,37.2820057 Z M34.5272648,33.2231822 C34.9011733,33.2231822 35.2037354,32.9202899 35.2037354,32.5467116 C35.2037354,32.1731334 34.9011733,31.870241 34.5272648,31.870241 L25.0566765,31.870241 C24.682768,31.870241 24.380206,32.1731334 24.380206,32.5467116 C24.380206,32.9202899 24.682768,33.2231822 25.0566765,33.2231822 L34.5272648,33.2231822 Z M35.2037354,28.4878881 C35.2037354,28.1143098 34.9011733,27.8114175 34.5272648,27.8114175 L25.0566765,27.8114175 C24.682768,27.8114175 24.380206,28.1143098 24.380206,28.4878881 C24.380206,28.8614663 24.682768,29.1643587 25.0566765,29.1643587 L34.5272648,29.1643587 C34.9011733,29.1643587 35.2037354,28.8614663 35.2037354,28.4878881 Z" id="apply"></path>
                </g>
            </g>
        </g>
    </g>
</svg>