<?xml version="1.0" encoding="UTF-8"?>
<svg width="24px" height="20px" viewBox="0 0 24 20" version="1.1" xmlns="http://www.w3.org/2000/svg" xmlns:xlink="http://www.w3.org/1999/xlink">
    <!-- Generator: Sketch 49 (51002) - http://www.bohemiancoding.com/sketch -->
    <title>estimate</title>
    <desc>Created with Sketch.</desc>
    <defs></defs>
    <g id="Page-1" stroke="none" stroke-width="1" fill="none" fill-rule="evenodd">
        <g id="landing-page" transform="translate(-738.000000, -1779.000000)" fill="#B9CECE" fill-rule="nonzero">
            <g id="the-process" transform="translate(0.000000, 1023.000000)">
                <g id="step-3" transform="translate(720.000000, 736.000000)">
                    <path d="M33.3210884,32.5001361 L40.1768707,32.5001361 L40.1768707,38.1518367 C40.1768707,38.1518367 40.1768707,40 38.3287075,40 L19.8481633,40 C18.8280272,40 18,39.1714286 18,38.1518367 L18,21.8478912 C18,20.8282993 18.8280272,20 19.8481633,20 L38.3289796,20 C40.1771429,20 40.1771429,21.8478912 40.1771429,21.8478912 L40.1771429,23.3077551 L34.7072109,23.3077551 C34.6764626,23.3077551 34.6459864,23.3088435 34.6163265,23.3107483 L33.3210884,23.3107483 C31.5518367,23.3107483 30.112381,24.7502041 30.112381,26.5191837 L30.112381,29.2914286 C30.112381,31.0606803 31.5518367,32.5001361 33.3210884,32.5001361 Z M40.9853061,24.6718367 C41.5531973,24.6914286 41.5564626,25.2663946 41.5567347,25.2663946 L41.5567347,30.5409524 C41.5567347,30.5409524 41.5534694,31.1161905 40.9853061,31.1357823 L40.9853061,31.1395918 L33.3210884,31.1395918 C32.3009524,31.1395918 31.4729252,30.3110204 31.4729252,29.2914286 L31.4729252,26.5191837 C31.4729252,25.4993197 32.3009524,24.6712925 33.3210884,24.6712925 L34.6780952,24.6712925 C34.6878912,24.6707483 34.6968707,24.6682993 34.7069388,24.6682993 L40.9583673,24.6682993 C40.9668027,24.6682993 40.9727891,24.6710204 40.9809524,24.6712925 L40.9853061,24.6712925 L40.9853061,24.6718367 Z M34.0938776,28.9504762 C34.6704762,28.9504762 35.1387755,28.4821769 35.1387755,27.9053061 C35.1387755,27.3287075 34.6704762,26.8604082 34.0938776,26.8604082 C33.5167347,26.8604082 33.0487075,27.3284354 33.0487075,27.9053061 C33.0487075,28.482449 33.5167347,28.9504762 34.0938776,28.9504762 Z" id="estimate"></path>
                </g>
            </g>
        </g>
    </g>
</svg>