<?xml version="1.0" encoding="UTF-8"?>
<svg width="24px" height="25px" viewBox="0 0 24 25" version="1.1" xmlns="http://www.w3.org/2000/svg" xmlns:xlink="http://www.w3.org/1999/xlink">
    <!-- Generator: Sketch 49 (51002) - http://www.bohemiancoding.com/sketch -->
    <title>refund</title>
    <desc>Created with Sketch.</desc>
    <defs></defs>
    <g id="Page-1" stroke="none" stroke-width="1" fill="none" fill-rule="evenodd">
        <g id="landing-page" transform="translate(-738.000000, -1957.000000)" fill="#B9CECE" fill-rule="nonzero">
            <g id="the-process" transform="translate(0.000000, 1023.000000)">
                <g id="step-4" transform="translate(720.000000, 916.000000)">
                    <path d="M29.5267926,40.7515407 C34.7224812,40.7515407 38.934419,36.5396029 38.934419,31.3439143 C38.934419,26.1482257 34.7224812,21.9362878 29.5267926,21.9362878 C29.4319067,21.934655 29.3376155,21.9209399 29.2461963,21.8954738 L29.2461963,23.2805989 C29.24535,23.5388482 29.100626,23.7750915 28.8709419,23.8931534 C28.6412577,24.0112154 28.3649182,23.9914066 28.1544219,23.8417913 L24.953074,21.546004 C24.7714673,21.4167952 24.6636128,21.2076924 24.6636128,20.9848115 C24.6636128,20.7619306 24.7714673,20.5528279 24.953074,20.423619 L28.1544219,18.1278317 C28.3649182,17.9782164 28.6412577,17.9584076 28.8709419,18.0764696 C29.100626,18.1945315 29.24535,18.4307748 29.2461963,18.6890241 L29.2461963,19.7246793 C29.337604,19.6991586 29.4319022,19.6854425 29.5267926,19.6838653 C35.6596316,19.6822112 40.745023,24.4326133 41.1606353,30.5513536 C41.5762477,36.670094 37.1799398,42.0645358 31.1032078,42.8922106 C25.0264758,43.7198854 19.3475895,39.6977247 18.1116276,33.6907191 C18.0086701,33.2887806 18.1353212,32.8628011 18.4411497,32.5824018 C18.7469781,32.3020025 19.1823246,32.2127135 19.5738381,32.3500891 C19.9653515,32.4874646 20.2494594,32.8291981 20.3130326,33.2392143 C21.2232184,37.6059608 25.0662137,40.7393 29.5267926,40.7515407 Z M18.9483146,30.8031288 C19.009305,30.8099811 19.0708204,30.8108354 19.1319775,30.8056797 C19.7360733,30.8019465 20.2293667,30.3217469 20.2493462,29.7179701 C20.2693257,29.1141933 19.8088571,28.6024329 19.2063297,28.5587715 C18.6038022,28.5151101 18.0743635,28.955138 18.0070875,29.5554876 C17.9398114,30.1558371 18.3587207,30.7021383 18.9559672,30.7929253 L18.9483146,30.8031288 Z M22.0935432,22.3852418 C21.6153133,22.7818158 21.5491054,23.4909793 21.9456618,23.9692238 C22.3422181,24.4474683 23.0513792,24.5137024 23.5296383,24.1171636 C24.0078975,23.7206249 24.0741576,23.0114663 23.6776365,22.5331925 C23.4909014,22.2994858 23.2185966,22.1499938 22.9211758,22.1179049 C22.623755,22.085816 22.3258302,22.1737857 22.0935432,22.3622839 L22.0935432,22.3852418 Z M21.3537895,26.6732624 C21.6038935,26.2321024 21.527109,25.6780381 21.1664592,25.3215189 C20.8058094,24.9649997 20.2508975,24.8946024 19.8126476,25.1497714 C19.3743977,25.4049404 19.1616925,25.9222793 19.2937135,26.4119166 C19.4257344,26.9015539 19.8696811,27.2418397 20.3768045,27.2421075 C20.7810133,27.2417869 21.1539766,27.0246308 21.3537895,26.6732624 Z M29.5625048,25.2192638 C29.1004154,25.2192638 28.7258179,25.5938613 28.7258179,26.0559507 L28.7258179,26.6171432 C27.2156999,26.9538587 26.2744271,27.9716577 26.2744271,29.2981127 C26.2744271,30.9485287 27.7131205,31.6449175 28.9656001,32.0658119 C30.006357,32.4178326 30.4119461,32.736692 30.4119461,33.2035021 C30.4119461,33.6703121 29.9400343,33.9687645 29.151814,33.9687645 C28.6310552,33.9688114 28.1138835,33.8826162 27.621289,33.713677 C27.5186689,33.6784183 27.4109379,33.6603195 27.3024297,33.6601087 C26.8696849,33.6588618 26.490912,33.9505484 26.3815639,34.3692519 L26.3637077,34.4381255 C26.237331,34.9370612 26.5229271,35.4477742 27.0141808,35.6013244 C27.5463315,35.7700971 28.0971893,35.8729011 28.6543934,35.9074294 L28.6543934,36.4431131 C28.6543934,36.9052026 29.0289909,37.2798001 29.4910803,37.2798001 C29.9531698,37.2798001 30.3277673,36.9052026 30.3277673,36.4431131 L30.3277673,35.7824365 C31.8863518,35.4712298 32.9067017,34.387108 32.9067017,32.9994321 C32.9067017,31.6117561 32.1414393,30.7954762 30.3991918,30.1756136 C29.1671192,29.7113544 28.7487757,29.4282073 28.7487757,29.0532287 C28.7487757,28.6195799 29.1543648,28.3721451 29.8660589,28.3721451 C30.2875063,28.3703876 30.706926,28.4305503 31.1108858,28.5507063 C31.1937422,28.5751697 31.279586,28.5880462 31.3659733,28.5889694 C31.854322,28.5963048 32.2710318,28.2373444 32.3360924,27.7532934 C32.401153,27.2692424 32.0940148,26.8129905 31.6210608,26.6911186 C31.220204,26.5876832 30.8100377,26.5244492 30.3966409,26.5023538 L30.3966409,26.0585016 C30.396643,25.5974065 30.0235978,25.2232204 29.5625048,25.2218146 L29.5625048,25.2192638 Z" id="refund"></path>
                </g>
            </g>
        </g>
    </g>
</svg>