<?xml version="1.0" encoding="UTF-8"?>
<svg width="19px" height="18px" viewBox="0 0 19 18" version="1.1" xmlns="http://www.w3.org/2000/svg" xmlns:xlink="http://www.w3.org/1999/xlink">
    <!-- Generator: Sketch 49 (51002) - http://www.bohemiancoding.com/sketch -->
    <title>Instagram</title>
    <desc>Created with Sketch.</desc>
    <defs></defs>
    <g id="Page-1" stroke="none" stroke-width="1" fill="none" fill-rule="evenodd">
        <g id="landing-page" transform="translate(-378.000000, -4280.000000)" fill="#FFFFFF">
            <g id="footer" transform="translate(0.000000, 4100.000000)">
                <g id="Connect-with-us-on-S">
                    <path d="M393.915946,180 L380.320108,180 C379.149135,180 378.2,180.946703 378.2,182.115243 L378.2,195.720811 C378.2,196.888865 379.149135,197.836054 380.320108,197.836054 L393.915946,197.836054 C395.086919,197.836054 396.036054,196.888865 396.036054,195.720811 L396.036054,182.115243 C396.036054,180.946703 395.086919,180 393.915946,180 L393.915946,180 Z M391.019892,182.786595 C391.019892,182.479135 391.269459,182.229568 391.576919,182.229568 L393.248973,182.229568 C393.556919,182.229568 393.806486,182.479135 393.806486,182.786595 L393.806486,184.458649 C393.806486,184.766595 393.556919,185.016162 393.248973,185.016162 L391.576919,185.016162 C391.269459,185.016162 391.019892,184.766595 391.019892,184.458649 L391.019892,182.786595 L391.019892,182.786595 Z M387.138703,185.516757 C389.033081,185.516757 390.568919,187.049189 390.568919,188.938703 C390.568919,190.828703 389.033081,192.360649 387.138703,192.360649 C385.244811,192.360649 383.708973,190.828703 383.708973,188.938703 C383.708973,187.049189 385.244811,185.516757 387.138703,185.516757 L387.138703,185.516757 Z M394.364,195.606486 C394.364,195.913946 394.114432,196.164 393.806486,196.164 L380.429568,196.164 C380.121622,196.164 379.872054,195.913946 379.872054,195.606486 L379.872054,187.24573 L382.101622,187.24573 C381.811189,187.663622 381.712919,188.443459 381.712919,188.938703 C381.712919,191.923297 384.147297,194.351838 387.138703,194.351838 C390.130595,194.351838 392.564973,191.923297 392.564973,188.938703 C392.564973,188.443459 392.494432,187.675297 392.134432,187.24573 L394.364,187.24573 L394.364,195.606486 L394.364,195.606486 Z" id="Instagram"></path>
                </g>
            </g>
        </g>
    </g>
</svg>