<?xml version="1.0" encoding="UTF-8"?>
<svg width="18px" height="21px" viewBox="0 0 18 21" version="1.1" xmlns="http://www.w3.org/2000/svg" xmlns:xlink="http://www.w3.org/1999/xlink">
    <!-- Generator: Sketch 49 (51002) - http://www.bohemiancoding.com/sketch -->
    <title>male</title>
    <desc>Created with Sketch.</desc>
    <defs></defs>
    <g id="Page-1" stroke="none" stroke-width="1" fill="none" fill-rule="evenodd">
        <g id="landing-page" transform="translate(-969.000000, -3841.000000)" fill="#FFBF00" fill-rule="nonzero">
            <g id="Get-Started" transform="translate(235.000000, 3714.000000)">
                <g id="gender" transform="translate(695.000000, 81.000000)">
                    <g id="male" transform="translate(0.000000, 31.000000)">
                        <path d="M54.0076881,28.2725966 C54.401744,28.4341818 54.8144981,28.697016 54.9860743,29.1070909 C54.9860743,29.1070909 57.8812691,36 56.3107943,36 L39.4668007,36 C37.8964376,36 40.7916324,29.1070909 40.7916324,29.1070909 C40.9886604,28.6796575 41.3759069,28.4342376 41.7700186,28.2725966 L44.4336358,27.0460556 L45.7132571,25.9669786 L47.7692691,28.011995 L47.7706087,28.011995 L46.8833688,33.9437648 C46.8802432,33.9641373 46.885434,33.9849565 46.8976017,34.0016452 L47.8253076,35.271443 C47.8400987,35.291704 47.8635969,35.3037043 47.8887138,35.3037043 C47.9137749,35.3037043 47.9373289,35.291704 47.95212,35.271443 L48.8798817,34.0016452 C48.8920494,33.9849565 48.8971844,33.9641373 48.8941146,33.9437648 L48.0068748,28.0121624 L48.0083818,28.0121624 L50.0644496,25.9669786 L51.3441267,27.0460556 L54.0076881,28.2725966 Z M47.8887696,26.5154755 C45.5109825,26.5154755 43.1318,23.977331 43.0855291,19.7210804 C43.0555563,16.7675586 44.4624365,15 47.8887696,15 C51.3149353,15 52.7214806,16.7675586 52.6920659,19.7210804 C52.6458508,23.977331 49.9203903,26.5154755 47.8887696,26.5154755 Z M46.9233884,20.9072111 C48.589084,18.8532084 43.9395589,18.2760784 44.2404591,20.8093111 C44.5181402,23.1452367 45.8943777,25.4818879 47.8891045,25.4818879 C49.7896709,25.4818879 51.5168192,22.6703044 51.5378616,20.8083064 C51.5729694,17.697832 49.4075036,21.1717755 46.9233884,20.9072111 Z"></path>
                    </g>
                </g>
            </g>
        </g>
    </g>
</svg>